<svg width="24" height="24" viewBox="0 0 24 24" fill="none" xmlns="http://www.w3.org/2000/svg">
<path d="M4.86467 17.718L6.08467 18.938L4.208 19.6977L4.86467 17.718Z" fill="#3F3F3F"/>
<path d="M6.01266 13.9587L12.2893 7.682L16.0603 11.453L9.837 17.6763" fill="#F4AA41"/>
<path d="M4.80433 17.522L5.976 14.465L9.276 17.7647L6.21867 18.9363" fill="#A57939"/>
<path d="M14.307 5.66433L16.8077 3.16367L20.5787 6.93467L18.099 9.414" fill="#EA5A47"/>
<path d="M11.8833 8.088L14.444 5.52733L18.215 9.29833L15.676 11.8373" fill="#9B9B9A"/>
<path d="M15.7783 4.66233L16.9463 3.49467L20.246 6.79433L19.088 7.95233M6.18533 14.2557L9.48533 17.5553M6.21 18.94L9.276 17.7647L17.9403 9.10033L14.6403 5.80033L5.976 14.465L4.79667 17.5343L6.21 18.94Z" stroke="black" stroke-width="0.333333" stroke-miterlimit="10" stroke-linecap="round" stroke-linejoin="round"/>
<path d="M4.79933 17.5273L3.969 19.7717L6.21866 18.9363M12.3033 8.33567L15.474 11.5067" stroke="black" stroke-width="0.333333" stroke-miterlimit="10" stroke-linecap="round" stroke-linejoin="round"/>
</svg>
